<svg width="18" height="30" viewBox="0 0 18 30" fill="none" xmlns="http://www.w3.org/2000/svg">
<path d="M15.9866 12.1149H2.01339C0.901535 12.1149 0 12.9612 0 14.005V27.1229C0 28.1667 0.901535 29.013 2.01339 29.013H15.9866C17.0984 29.013 18 28.1667 18 27.1229V14.005C18 12.9612 17.0984 12.1149 15.9866 12.1149ZM9.89898 20.5787L10.1989 23.128C10.2469 23.5366 9.9062 23.8937 9.46841 23.8937H8.54618C8.10313 23.8937 7.76083 23.5286 7.81725 23.1159L8.15995 20.6073C7.53588 20.3171 7.10651 19.7135 7.10531 19.0158C7.10357 18.0466 7.94124 17.2473 8.97363 17.2343C10.0322 17.2207 10.8947 18.0222 10.8947 19.0128C10.8947 19.6896 10.4918 20.2782 9.89898 20.5787Z" fill="#2F80ED"/>
<path d="M4.58447 6.78223C4.58447 5.67493 5.04379 4.63393 5.87783 3.85094C6.71187 3.06796 7.82075 2.63675 9.00025 2.63675C10.1797 2.63675 11.2886 3.06796 12.1227 3.85094C12.9567 4.63393 13.416 5.67493 13.416 6.78223V10.7131H15.1734V6.78223C15.1734 6.00023 15.0101 5.24121 14.688 4.52619C14.377 3.83598 13.932 3.21629 13.3654 2.68434C12.7987 2.15238 12.1386 1.73461 11.4034 1.44271C10.6418 1.14028 9.83327 0.986938 9.00028 0.986938C8.1673 0.986938 7.35878 1.14028 6.59714 1.44271C5.86193 1.73464 5.20183 2.15238 4.63519 2.68434C4.06855 3.21629 3.62357 3.83598 3.31261 4.52619C2.99049 5.24118 2.82715 6.00023 2.82715 6.78223V10.7131H4.58454V6.78223H4.58447Z" fill="#2F80ED"/>
</svg>
