<svg width="13" height="13" viewBox="0 0 13 13" fill="none" xmlns="http://www.w3.org/2000/svg">
<path d="M13 5.75572V10.1806C13 11.4502 11.8739 12.4619 10.5092 12.4619L2.49082 12.4619C1.10465 12.4619 0 11.4305 0 10.1806L0 5.7754C0 5.63565 0.128947 5.51755 0.281534 5.51755C0.434121 5.51755 0.541577 5.63565 0.541577 5.75572L0.541577 10.1806C0.541577 11.1726 1.42916 11.9659 2.49082 11.9659L10.507 11.9659C11.5902 11.9659 12.4563 11.153 12.4563 10.1806V5.7754C12.4563 5.63565 12.5852 5.51755 12.7378 5.51755C12.8668 5.51755 12.9979 5.63565 12.9979 5.75572H13Z" fill="white"/>
<path d="M6.78267 0.795454L6.78267 8.73384C6.78267 8.8736 6.65373 8.9917 6.50114 8.9917C6.34855 8.9917 6.2196 8.8736 6.2196 8.73384L6.2196 0.795454C6.2196 0.655701 6.34855 0.5376 6.50114 0.5376C6.65373 0.557283 6.78267 0.677353 6.78267 0.795454Z" fill="white"/>
<path d="M8.12565 2.28343C8.12565 2.36217 8.08266 2.42319 8.03968 2.48224C7.93223 2.56097 7.75815 2.56097 7.65069 2.44287L6.50306 1.19296L5.35544 2.44287C5.26947 2.54129 5.09539 2.56097 4.96645 2.48224C4.85899 2.4035 4.83535 2.24407 4.92346 2.12596L6.28815 0.637885C6.33114 0.578834 6.4171 0.55915 6.50521 0.55915C6.59333 0.55915 6.6578 0.598518 6.72227 0.637885L8.08696 2.12596C8.10845 2.18501 8.12995 2.24406 8.12995 2.2854L8.12565 2.28343Z" fill="white"/>
</svg>
